<?xml version="1.0" standalone="no"?>
<!DOCTYPE svg PUBLIC "-//W3C//DTD SVG 20010904//EN"
 "http://www.w3.org/TR/2001/REC-SVG-20010904/DTD/svg10.dtd">
<svg version="1.0" xmlns="http://www.w3.org/2000/svg"
 width="661.000000pt" height="661.000000pt" viewBox="0 0 661.000000 661.000000"
 preserveAspectRatio="xMidYMid meet">
<metadata>
Created by potrace 1.11, written by Peter Selinger 2001-2013
</metadata>
<g transform="translate(0.000000,661.000000) scale(0.100000,-0.100000)"
fill="#000000" stroke="none">
<path d="M3722 6112 c-124 -171 -172 -283 -182 -429 -3 -57 -8 -104 -11 -106
-2 -3 -72 -7 -155 -10 l-151 -6 -11 114 c-8 87 -18 128 -40 178 -30 66 -109
186 -161 246 l-30 34 -100 -23 -101 -23 -24 -81 c-59 -199 -65 -311 -23 -447
33 -108 33 -115 0 -123 -31 -8 -130 -46 -209 -81 l-51 -23 -46 98 c-41 85 -57
107 -125 171 -66 62 -198 153 -253 174 -8 3 -54 -18 -102 -47 l-87 -52 0 -45
c0 -75 27 -233 51 -297 25 -66 42 -93 113 -185 l50 -62 -44 -36 c-24 -20 -78
-66 -120 -102 l-76 -67 -86 78 c-64 58 -103 84 -159 108 -81 33 -205 67 -285
77 l-50 7 -54 -63 c-30 -35 -60 -71 -67 -80 -11 -13 -6 -29 31 -105 84 -170
152 -247 295 -333 39 -24 71 -45 71 -48 0 -4 -133 -241 -146 -262 -2 -1 -49
16 -106 40 l-103 43 -150 1 c-91 0 -179 -6 -224 -14 -72 -14 -74 -15 -91 -55
-9 -23 -25 -65 -35 -94 l-17 -54 38 -40 c48 -50 160 -133 236 -177 43 -24 87
-37 170 -52 62 -11 114 -22 117 -24 2 -3 -6 -55 -18 -117 -11 -62 -22 -126
-23 -143 l-3 -30 -150 -6 c-185 -7 -237 -22 -422 -117 l-83 -42 0 -99 0 -99
77 -32 c97 -41 159 -59 252 -75 62 -11 88 -11 170 2 53 9 109 16 126 17 29 1
30 0 37 -59 3 -33 13 -91 22 -128 23 -99 23 -101 -31 -116 -131 -37 -199 -65
-260 -107 -70 -48 -253 -221 -253 -239 0 -18 63 -170 74 -177 16 -11 242 -9
316 3 92 15 153 37 241 86 42 24 82 43 88 43 6 0 20 -19 32 -42 12 -24 44 -76
70 -116 27 -40 49 -77 49 -82 0 -5 -37 -36 -83 -69 -134 -96 -198 -177 -285
-359 l-44 -94 29 -31 c17 -18 45 -49 63 -70 18 -20 42 -37 53 -37 41 0 167 45
277 98 104 50 124 64 207 148 79 81 93 91 104 77 7 -8 57 -47 111 -85 54 -38
100 -73 103 -78 2 -4 -22 -44 -53 -88 -101 -139 -141 -260 -145 -442 l-2 -85
83 -43 83 -43 37 22 c171 104 284 222 356 372 44 93 54 107 71 102 11 -3 74
-21 140 -39 65 -18 121 -38 122 -43 2 -6 -6 -44 -18 -84 -31 -108 -38 -157
-32 -224 11 -137 64 -324 91 -326 9 0 55 -4 101 -8 l83 -6 42 55 c61 81 101
146 141 233 31 67 38 95 47 196 l11 117 151 10 c105 7 153 7 158 0 4 -6 8 -45
8 -86 0 -127 46 -238 160 -388 75 -98 64 -95 200 -63 l75 18 23 74 c60 192 66
309 22 455 -16 54 -26 102 -22 105 4 4 39 19 77 34 39 15 98 40 133 56 35 16
65 29 67 29 2 0 27 -44 55 -98 67 -132 141 -205 306 -305 34 -20 70 -37 80
-37 11 0 56 23 102 51 l83 52 -6 66 c-11 113 -35 232 -61 295 -23 57 -36 77
-121 182 l-33 41 72 60 c40 33 93 79 118 102 25 22 47 41 50 41 3 0 38 -31 79
-70 101 -94 234 -154 416 -187 l80 -14 57 63 c86 95 86 93 44 179 -80 168
-157 258 -285 332 -43 25 -82 50 -85 55 -3 5 23 57 59 116 35 59 67 116 70
127 9 26 21 24 117 -17 136 -58 263 -65 508 -29 46 7 53 16 89 117 l30 86 -65
61 c-72 67 -179 141 -248 171 -25 12 -92 29 -148 38 -121 21 -113 1 -78 192
l23 125 122 -3 c164 -4 281 26 431 111 33 18 67 36 77 40 15 5 17 20 17 109
l0 103 -78 32 c-135 57 -225 77 -337 75 -55 -1 -116 -6 -135 -12 -19 -5 -49
-10 -66 -10 l-30 0 -28 141 c-15 77 -26 141 -24 143 1 1 30 10 63 20 133 40
183 62 254 111 71 47 222 189 240 224 5 11 -4 46 -27 105 l-36 89 -175 -6
c-177 -5 -244 -16 -316 -54 -119 -62 -166 -85 -169 -82 -1 2 -18 31 -36 64
-19 33 -51 86 -72 117 -21 31 -38 59 -38 62 0 2 35 30 79 60 43 31 104 83 134
116 57 61 150 216 182 303 l18 47 -54 58 c-86 92 -73 89 -223 37 -173 -60
-277 -124 -368 -226 -33 -38 -65 -69 -70 -69 -6 0 -30 18 -55 39 -24 22 -73
59 -108 83 -36 24 -65 48 -65 54 0 6 27 48 59 93 32 45 70 110 84 145 28 70
54 205 59 306 l3 65 -83 43 c-54 28 -89 41 -102 37 -35 -11 -179 -124 -251
-195 -57 -57 -78 -88 -125 -185 -45 -93 -59 -115 -73 -110 -40 16 -244 75
-257 75 -18 0 -19 -2 16 115 44 147 37 275 -22 451 -26 77 -26 77 -150 87
l-77 6 -49 -67z m83 -135 c22 -102 19 -198 -10 -296 -42 -143 -44 -140 144
-196 93 -27 134 -34 165 -30 26 4 57 1 84 -9 23 -8 42 -13 42 -10 0 3 6 2 13
-3 37 -23 48 -14 93 83 56 121 113 195 218 284 119 100 122 98 102 -57 -20
-149 -47 -228 -109 -318 -90 -132 -91 -134 -79 -160 6 -13 37 -42 69 -64 32
-22 81 -58 108 -80 58 -47 92 -52 132 -17 l27 24 53 -39 c29 -22 57 -39 63
-39 7 0 48 38 93 83 91 93 105 103 230 164 99 48 103 49 129 26 23 -21 23 -33
-4 -96 -61 -146 -145 -254 -267 -344 -87 -65 -101 -79 -101 -106 0 -17 63
-133 80 -147 3 -3 19 -27 35 -55 15 -27 33 -53 39 -57 20 -14 52 -8 102 17 27
14 50 25 51 25 1 0 12 -18 25 -41 20 -37 26 -40 52 -35 17 4 32 10 36 14 3 5
43 27 90 49 89 43 156 62 251 70 l56 5 21 -53 c12 -28 22 -58 22 -65 0 -22
-150 -164 -226 -214 -78 -51 -88 -56 -219 -97 -121 -39 -121 -38 -86 -217 32
-165 37 -171 126 -161 33 3 70 9 83 12 18 4 22 1 22 -21 0 -22 4 -26 29 -26
17 0 33 5 36 10 3 6 28 10 55 10 27 0 60 4 73 9 30 12 71 2 174 -41 71 -29 72
-30 79 -73 3 -25 2 -61 -2 -81 -8 -32 -18 -41 -81 -74 -149 -79 -279 -111
-429 -103 -80 4 -93 2 -117 -17 -25 -20 -27 -26 -27 -101 0 -44 -5 -112 -12
-150 -15 -91 -9 -97 127 -126 124 -26 228 -81 333 -179 l66 -60 -24 -68 c-13
-37 -32 -72 -41 -76 -9 -5 -68 -16 -131 -24 -122 -16 -190 -12 -259 18 -20 8
-44 13 -55 10 -11 -3 -45 6 -77 20 -95 43 -122 34 -167 -52 -17 -31 -48 -86
-70 -122 -61 -100 -57 -112 53 -177 85 -49 147 -106 196 -177 37 -54 101 -179
101 -198 0 -21 -77 -116 -99 -123 -37 -11 -216 63 -251 104 -3 3 -31 31 -63
61 l-57 54 -28 -27 c-15 -15 -31 -27 -34 -27 -4 0 -29 19 -57 43 -63 54 -89
53 -157 -10 -27 -24 -74 -65 -105 -89 -31 -25 -61 -56 -68 -70 -14 -31 -8 -43
65 -139 76 -100 102 -174 123 -343 12 -95 7 -113 -39 -137 -42 -22 -52 -20
-114 29 -75 58 -126 124 -172 224 -42 91 -50 95 -111 62 -52 -28 -60 -26 -82
19 -30 58 -52 59 -174 7 -57 -25 -116 -48 -130 -51 -35 -9 -67 -42 -67 -68 0
-13 11 -61 25 -108 30 -103 32 -184 6 -311 -27 -130 -43 -172 -69 -176 -26 -4
-70 53 -120 157 -30 63 -38 94 -51 204 l-15 129 -83 -6 c-68 -6 -83 -4 -83 7
0 8 -8 21 -18 30 -16 15 -35 15 -167 6 -83 -5 -157 -12 -166 -14 -24 -8 -39
-49 -39 -108 -1 -134 -87 -339 -194 -455 l-21 -24 -7 29 c-48 194 -56 276 -33
363 18 73 33 124 47 159 15 39 -10 54 -117 67 -16 2 -64 15 -105 28 -192 62
-262 78 -286 67 -17 -7 -40 -43 -76 -118 -42 -88 -63 -119 -122 -178 -66 -66
-175 -155 -189 -155 -22 0 5 209 38 305 24 70 38 95 106 190 32 46 59 90 59
97 0 8 -21 27 -47 44 -25 16 -51 34 -57 39 -6 6 -42 34 -80 63 -70 53 -91 56
-113 18 -6 -11 -21 -5 -66 30 -32 24 -68 44 -80 44 -14 0 -58 -35 -118 -93
-96 -93 -151 -127 -291 -183 l-58 -22 -15 21 c-8 12 -15 26 -15 31 0 17 72
158 112 221 43 66 141 172 170 181 10 3 18 9 18 14 0 5 8 11 18 14 9 3 30 17
46 31 16 14 33 25 38 25 17 0 7 20 -66 135 -41 64 -78 125 -81 136 -8 25 -21
24 -70 -6 -52 -32 -61 -31 -81 8 -19 37 -42 56 -65 57 -9 0 -56 -20 -105 -44
-49 -24 -111 -51 -139 -60 -55 -18 -214 -40 -223 -31 -3 2 -14 28 -24 57 l-18
52 23 24 c107 117 238 220 322 254 22 9 74 26 115 38 41 12 81 24 89 26 15 5
12 43 -12 154 -8 36 -18 91 -22 124 l-7 58 -41 -5 c-23 -3 -61 -9 -84 -13 -39
-6 -43 -5 -43 14 0 12 -11 29 -24 38 -23 14 -34 14 -142 -1 -129 -19 -179 -14
-266 25 l-48 21 0 78 c0 62 4 81 18 94 24 21 206 106 245 114 18 3 34 9 37 12
13 17 151 29 240 21 52 -5 98 -6 102 -4 3 2 10 30 13 62 4 31 16 97 26 146 22
105 24 133 7 133 -38 0 -158 28 -188 44 -19 11 -43 19 -53 19 -47 0 -152 69
-260 170 l-48 45 28 75 c15 41 34 80 43 85 16 11 74 20 185 30 64 6 77 4 144
-24 79 -33 111 -38 140 -20 14 10 32 7 87 -15 38 -14 74 -26 81 -26 6 0 26 28
43 63 18 34 55 97 81 140 27 43 49 83 49 87 0 5 -38 30 -84 56 -95 53 -159
111 -217 196 -44 64 -109 187 -109 205 0 7 22 39 50 72 l50 60 71 -24 c95 -33
140 -60 222 -135 79 -73 111 -79 157 -35 l28 27 48 -46 c26 -25 52 -46 58 -46
6 1 40 28 76 61 36 34 91 81 123 106 31 25 57 52 57 60 0 8 -25 45 -55 83 -66
83 -88 119 -110 185 -24 68 -45 189 -45 255 0 54 1 55 41 77 47 26 44 27 131
-47 78 -66 117 -116 153 -195 30 -68 61 -105 85 -105 9 0 34 9 56 19 65 32 76
30 96 -11 10 -21 23 -38 28 -38 5 0 40 14 77 31 113 51 131 59 141 59 5 0 31
9 56 21 37 16 46 24 41 37 -4 9 -19 55 -33 102 -41 134 -34 267 25 458 21 68
39 67 87 -2 85 -124 126 -241 126 -363 0 -40 5 -58 21 -74 19 -19 28 -20 104
-14 79 7 83 6 90 -15 4 -14 12 -19 22 -15 9 3 85 8 169 12 l154 6 0 31 c0 17
7 77 14 133 18 134 68 246 171 377 l30 38 13 -43 c7 -24 19 -75 27 -112z"/>
<path d="M3114 4760 c-152 -16 -365 -76 -396 -112 -28 -31 -23 -65 12 -83 16
-8 33 -21 37 -29 7 -12 22 -9 88 21 216 95 380 133 586 134 368 2 669 -118
904 -362 160 -166 252 -335 301 -550 9 -39 18 -69 20 -67 7 8 -16 136 -37 198
-30 93 -91 211 -154 299 -171 238 -363 367 -697 467 -272 82 -460 106 -664 84z"/>
<path d="M1967 4686 c-179 -52 -205 -226 -68 -455 114 -190 282 -353 538 -524
272 -182 581 -290 781 -273 l72 6 0 -540 0 -540 26 -10 c33 -13 80 -13 105 0
18 10 19 26 19 466 l0 455 56 -46 c170 -138 428 -237 759 -291 157 -26 477
-26 595 -1 253 54 377 141 388 271 24 290 -633 577 -1266 553 -211 -8 -389
-49 -484 -112 -21 -14 -40 -25 -43 -25 -3 0 -5 19 -5 43 0 53 -38 160 -80 229
-208 339 -668 673 -1075 779 -102 26 -253 33 -318 15z"/>
<path d="M1990 3927 c-75 -36 -150 -352 -137 -575 34 -585 456 -1038 1048
-1125 339 -50 546 -49 733 4 39 11 88 24 109 30 21 5 45 13 55 18 9 5 61 30
114 55 191 91 344 212 479 381 54 67 117 172 72 119 -10 -12 -47 -58 -82 -104
-159 -202 -405 -371 -661 -454 -387 -125 -795 -75 -1118 137 -277 181 -454
454 -506 779 -32 201 -8 423 70 644 6 15 4 17 -6 7 -11 -10 -25 -2 -71 42 -32
30 -61 55 -66 55 -4 0 -19 -6 -33 -13z"/>
</g>
</svg>
