<?xml version="1.0" standalone="no"?>
<!DOCTYPE svg PUBLIC "-//W3C//DTD SVG 20010904//EN"
 "http://www.w3.org/TR/2001/REC-SVG-20010904/DTD/svg10.dtd">
<svg version="1.0" xmlns="http://www.w3.org/2000/svg"
 width="727.000000pt" height="727.000000pt" viewBox="0 0 727.000000 727.000000"
 preserveAspectRatio="xMidYMid meet">
<metadata>
Created by potrace 1.11, written by Peter Selinger 2001-2013
</metadata>
<g transform="translate(0.000000,727.000000) scale(0.100000,-0.100000)"
fill="#000000" stroke="none">
<path d="M3994 6847 c-131 -172 -193 -322 -194 -472 0 -33 -4 -65 -8 -71 -5
-8 -301 -37 -309 -30 0 0 -6 51 -11 111 -6 65 -19 133 -31 166 -23 60 -120
213 -171 267 l-31 34 -99 -23 -100 -23 -15 -45 c-61 -189 -72 -353 -30 -484
33 -102 32 -114 -6 -122 -17 -4 -52 -16 -78 -27 -75 -32 -114 -49 -145 -64
-16 -8 -30 -13 -32 -11 -2 1 -21 42 -44 90 -63 133 -162 231 -320 316 l-76 41
-83 -52 c-45 -28 -85 -58 -89 -66 -10 -26 17 -225 39 -293 30 -90 53 -132 115
-207 30 -36 54 -69 54 -73 0 -3 -35 -35 -77 -70 -43 -35 -96 -81 -117 -101
l-40 -37 -58 52 c-32 29 -76 66 -97 83 -66 53 -256 115 -384 127 l-47 5 -60
-72 c-33 -39 -60 -79 -60 -89 0 -21 49 -121 97 -196 54 -85 127 -154 214 -206
44 -26 83 -53 85 -59 2 -6 -25 -61 -61 -121 -36 -61 -68 -118 -71 -127 -8 -25
-25 -23 -110 16 -97 46 -194 60 -343 51 -64 -4 -121 -11 -126 -15 -6 -5 -28
-10 -49 -12 l-39 -3 -35 -93 -35 -93 49 -50 c101 -103 256 -194 355 -210 35
-5 87 -14 115 -20 l51 -10 -23 -112 c-13 -62 -23 -129 -24 -149 l0 -38 -129 0
c-83 0 -152 -6 -193 -16 -78 -19 -77 -18 -221 -89 l-117 -58 0 -98 0 -97 104
-41 c180 -70 272 -83 421 -59 39 6 83 11 99 12 l30 1 12 -87 c7 -47 20 -112
28 -143 13 -52 13 -57 -2 -62 -9 -2 -26 -9 -37 -13 -11 -5 -36 -12 -55 -16
-19 -3 -41 -10 -50 -15 -8 -4 -29 -12 -47 -18 -79 -24 -281 -185 -344 -273
l-19 -27 32 -85 32 -85 45 -7 c25 -4 101 -4 170 -1 147 7 221 27 345 93 46 24
89 44 94 44 6 0 25 -26 42 -57 18 -32 50 -84 71 -115 22 -31 39 -63 39 -70 -1
-7 -28 -31 -62 -52 -133 -87 -225 -201 -307 -380 l-41 -88 62 -69 c34 -38 70
-69 80 -69 34 0 231 71 311 113 62 32 102 63 172 133 l90 92 35 -30 c19 -16
72 -54 117 -86 46 -31 83 -60 83 -63 0 -4 -24 -40 -54 -80 -91 -125 -125 -215
-146 -379 -18 -147 -19 -145 78 -195 l84 -42 42 23 c67 38 228 177 274 237 22
30 59 95 81 143 34 76 44 89 63 88 39 -2 262 -71 266 -83 2 -6 -8 -51 -22
-100 -29 -99 -34 -219 -15 -313 17 -86 50 -192 62 -205 7 -7 54 -15 106 -19
107 -8 92 -18 180 111 100 145 134 238 146 396 l7 86 151 10 c111 8 154 7 159
-1 4 -6 8 -36 8 -67 0 -148 58 -281 195 -452 21 -26 38 -37 56 -37 25 0 178
35 184 42 10 12 49 158 60 228 21 121 19 173 -11 275 -41 144 -42 132 4 144
22 6 86 32 142 57 57 25 107 41 111 37 5 -5 27 -46 49 -92 47 -97 119 -177
223 -249 75 -52 149 -92 167 -92 11 0 111 58 158 91 23 17 23 18 13 112 -23
199 -50 275 -146 401 l-65 85 58 46 c31 26 83 71 114 101 32 30 61 54 65 54 5
0 43 -32 85 -71 110 -100 256 -163 436 -187 l64 -9 60 71 c33 39 62 76 65 82
6 15 -68 162 -117 234 -58 83 -105 126 -202 183 -48 28 -88 55 -88 59 0 4 15
31 34 60 18 29 52 88 75 130 48 87 35 84 149 32 85 -39 207 -57 327 -49 92 6
210 27 222 38 2 3 20 45 38 94 l34 88 -61 59 c-62 58 -131 108 -219 158 -41
24 -217 68 -270 68 -10 0 -19 3 -19 8 0 4 12 73 27 153 l27 146 115 -5 c151
-6 241 16 409 100 l122 60 0 102 0 102 -92 36 c-150 59 -206 70 -327 65 -58
-3 -133 -9 -166 -15 -33 -5 -61 -9 -62 -8 -1 1 -34 175 -50 267 -5 24 -1 26
109 59 89 27 131 46 198 91 95 64 250 213 250 242 0 10 -14 54 -32 99 l-32 81
-170 -5 c-197 -6 -231 -15 -384 -90 -56 -28 -104 -49 -105 -47 -2 2 -19 31
-37 64 -19 33 -51 87 -73 119 l-40 59 29 24 c16 14 47 36 68 50 104 67 180
161 258 318 69 137 69 125 -7 204 l-66 69 -70 -20 c-38 -10 -81 -26 -96 -34
-16 -7 -34 -14 -41 -14 -7 0 -54 -21 -104 -47 -75 -39 -109 -65 -178 -135 -47
-49 -89 -88 -93 -88 -5 0 -34 21 -65 48 -31 26 -81 62 -110 81 -28 18 -52 39
-52 45 0 7 27 50 60 96 33 45 69 108 81 139 28 74 57 219 61 305 l3 70 -88 43
c-75 38 -90 42 -110 32 -47 -25 -167 -121 -236 -190 -61 -61 -80 -89 -127
-186 -44 -90 -59 -113 -72 -109 -129 40 -213 65 -239 71 -18 3 -33 8 -33 11 0
2 14 52 30 111 17 58 30 129 30 157 0 74 -25 210 -52 291 -26 79 -28 80 -155
88 l-71 4 -38 -50z m86 -57 c15 -51 23 -114 27 -195 4 -108 2 -128 -21 -204
-18 -58 -23 -88 -16 -101 6 -11 36 -24 77 -34 37 -10 72 -21 78 -26 5 -4 39
-14 75 -20 36 -7 103 -24 150 -38 47 -14 89 -26 93 -27 4 0 25 38 46 85 21 47
51 106 66 130 56 90 256 260 289 247 19 -8 20 -31 5 -152 -19 -155 -59 -256
-154 -389 -19 -26 -35 -54 -35 -61 0 -11 163 -140 208 -164 16 -8 25 -6 46 10
l27 21 56 -44 c32 -23 63 -47 71 -52 10 -6 39 17 106 85 78 81 105 101 186
141 52 26 117 53 144 60 46 12 49 12 67 -11 10 -13 19 -30 19 -38 0 -24 -65
-157 -113 -231 -63 -97 -107 -144 -198 -208 -58 -41 -79 -61 -79 -77 0 -12 29
-67 63 -122 70 -111 82 -118 146 -86 22 12 42 21 45 21 2 0 19 -25 36 -55 17
-30 34 -55 36 -55 3 0 48 23 101 51 108 58 200 86 288 90 102 4 100 5 120 -54
10 -31 15 -64 12 -79 -9 -33 -155 -173 -243 -232 -49 -33 -102 -57 -181 -82
-73 -22 -113 -40 -118 -52 -5 -15 13 -134 37 -234 10 -44 11 -45 115 -33 l62
7 3 -34 3 -33 55 3 c30 1 77 8 104 14 95 21 282 -17 306 -62 14 -27 13 -163
-2 -183 -16 -20 -146 -89 -218 -116 -108 -39 -176 -51 -293 -51 -80 0 -118 -4
-125 -12 -5 -7 -18 -71 -27 -142 -21 -150 -21 -149 68 -161 29 -4 61 -13 72
-19 11 -7 38 -16 59 -20 58 -11 124 -47 207 -114 112 -89 123 -104 116 -151
-3 -22 -16 -64 -30 -95 -29 -64 -40 -69 -199 -86 l-96 -11 -88 36 c-101 40
-109 41 -123 18 -9 -17 -12 -17 -58 0 -100 38 -103 38 -125 14 -30 -32 -128
-206 -128 -227 0 -21 18 -37 95 -83 105 -62 184 -155 259 -306 25 -48 36 -81
32 -96 -10 -38 -96 -135 -121 -135 -27 0 -117 31 -173 59 -23 12 -81 56 -127
97 l-85 75 -42 -34 -43 -35 -49 39 c-26 21 -54 39 -61 39 -7 0 -41 -25 -76
-56 -35 -31 -83 -73 -106 -94 -24 -20 -43 -44 -43 -51 0 -8 22 -41 49 -75 87
-107 122 -196 142 -363 15 -125 10 -144 -46 -177 l-46 -26 -42 28 c-23 15 -72
58 -109 95 -54 53 -77 86 -113 163 -24 53 -49 96 -54 96 -5 0 -31 -11 -58 -24
-83 -41 -88 -41 -111 -1 -12 19 -27 35 -35 35 -21 0 -247 -96 -263 -112 -12
-12 -11 -25 11 -98 39 -135 34 -268 -16 -442 -21 -71 -41 -101 -67 -96 -24 5
-87 92 -133 184 -37 74 -42 91 -51 200 -6 65 -13 123 -17 127 -5 4 -28 3 -52
-2 -70 -17 -139 -14 -146 5 -5 15 -22 16 -147 10 -166 -8 -176 -14 -176 -101
0 -29 -4 -77 -10 -106 -13 -69 -95 -234 -161 -323 -61 -83 -65 -81 -99 47 -35
125 -33 274 3 392 15 49 27 93 27 97 0 4 -19 12 -42 18 -24 6 -94 27 -156 46
-99 31 -115 33 -125 20 -11 -13 -19 -12 -72 5 -97 31 -103 28 -153 -76 -45
-93 -91 -155 -172 -231 -80 -75 -139 -116 -163 -112 -21 3 -22 7 -19 68 10
189 53 317 151 452 33 47 61 88 61 91 0 3 -24 22 -54 42 -30 20 -85 61 -123
90 -37 30 -73 55 -79 55 -5 0 -23 -13 -39 -30 -16 -16 -32 -30 -35 -30 -4 0
-27 16 -51 35 -24 19 -52 35 -63 35 -10 0 -55 -37 -101 -83 -67 -67 -99 -91
-176 -129 -52 -25 -111 -52 -132 -59 -36 -13 -39 -12 -69 18 l-31 32 28 63
c43 98 115 216 166 272 26 28 86 78 133 111 47 33 85 65 86 71 0 6 -24 47 -53
90 -28 43 -63 100 -77 127 -14 26 -28 47 -33 47 -4 0 -34 -13 -67 -30 -33 -16
-64 -30 -69 -30 -5 0 -18 16 -30 35 -26 45 -46 45 -135 -4 -81 -45 -186 -77
-284 -87 l-69 -6 -22 51 c-42 99 -43 97 56 192 129 124 205 172 343 215 63 20
119 40 123 44 5 4 0 50 -11 101 -11 52 -23 119 -27 149 -4 30 -9 58 -11 61 -2
4 -41 0 -86 -7 -107 -18 -105 -18 -113 7 -7 21 -11 21 -79 13 -134 -15 -184
-10 -276 27 l-85 35 0 95 0 94 70 37 c169 90 285 120 447 116 l121 -3 23 130
c12 72 25 144 29 161 l7 31 -64 12 c-214 43 -303 86 -443 214 l-60 55 29 87
c16 48 34 88 40 90 112 29 332 36 387 12 20 -9 45 -14 56 -11 11 3 58 -11 106
-30 47 -20 88 -36 91 -36 2 0 24 35 47 78 23 42 61 107 85 144 48 76 53 66
-56 128 -41 23 -95 61 -118 84 -55 52 -136 169 -174 253 l-29 65 57 69 c62 76
68 78 155 53 84 -25 138 -57 211 -123 36 -34 73 -61 81 -61 8 0 26 9 41 21
l27 21 63 -56 63 -55 24 25 c13 15 70 65 127 112 56 46 102 87 102 89 0 3 -29
41 -65 85 -92 116 -131 225 -149 425 l-6 62 43 29 c67 45 74 46 126 8 79 -58
147 -139 190 -225 23 -45 49 -85 57 -88 9 -3 39 4 68 16 28 11 54 21 57 21 4
0 12 -15 20 -32 7 -18 19 -43 27 -55 l14 -22 46 23 c62 32 228 96 247 96 20 0
19 12 -12 115 -36 118 -37 256 -3 390 29 116 37 132 71 144 25 9 31 6 54 -20
77 -93 133 -228 142 -343 3 -45 11 -91 19 -103 12 -20 19 -21 87 -16 l74 6 6
-33 7 -32 85 6 c47 3 123 9 169 12 l83 6 10 122 c12 141 32 196 121 336 60 95
102 144 113 133 4 -5 17 -42 29 -83z"/>
<path d="M3399 5449 c-54 -5 -149 -22 -213 -39 -192 -49 -232 -79 -162 -121
20 -11 33 -25 30 -30 -6 -10 13 -3 100 36 228 102 463 138 719 110 323 -34
602 -185 808 -437 97 -119 162 -247 213 -418 30 -102 35 -77 6 30 -28 100
-116 279 -179 362 -154 203 -348 341 -594 423 -185 62 -533 102 -728 84z"/>
<path d="M2253 5410 c-52 -11 -105 -38 -101 -51 2 -6 141 -228 308 -494 l305
-484 135 -69 c227 -117 472 -180 599 -155 l51 10 0 -216 c0 -192 4 -253 41
-551 23 -184 43 -337 45 -339 2 -2 17 2 34 9 l30 12 0 457 0 457 -26 35 c-33
44 -54 94 -54 128 0 25 35 71 54 71 5 0 222 -133 483 -296 l474 -295 117 -6
c218 -11 465 30 594 99 190 101 209 248 53 403 -317 314 -1201 450 -1605 248
-41 -21 -78 -39 -82 -41 -5 -2 -8 12 -8 30 0 156 -170 409 -408 609 -107 90
-313 229 -408 277 -236 119 -495 181 -631 152z"/>
<path d="M2246 4608 c-25 -38 -65 -170 -82 -269 -24 -140 -15 -371 19 -502 66
-250 234 -495 441 -641 93 -66 243 -141 341 -171 227 -69 350 -96 499 -106 81
-5 150 -8 153 -6 4 4 -40 9 -212 23 -243 19 -520 145 -709 324 -118 111 -242
303 -294 455 -38 108 -62 260 -62 381 0 115 30 296 64 393 19 52 19 52 3 46
-7 -3 -35 17 -62 45 -54 55 -77 61 -99 28z"/>
<path d="M4696 3520 c-78 -119 -243 -275 -391 -372 -140 -92 -344 -173 -494
-197 -60 -10 -92 -21 -60 -21 51 0 150 24 279 69 253 86 524 290 669 504 18
27 31 50 28 53 -2 2 -16 -14 -31 -36z"/>
<path d="M3653 2923 c15 -2 39 -2 55 0 15 2 2 4 -28 4 -30 0 -43 -2 -27 -4z"/>
<path d="M240 4127 c0 -30 26 -66 56 -77 13 -5 80 -7 149 -3 98 5 125 9 125
20 0 12 -24 14 -134 12 -145 -4 -166 2 -166 47 0 15 -6 24 -15 24 -9 0 -15 -9
-15 -23z"/>
<path d="M271 3944 c-26 -33 -26 -40 -2 -86 13 -26 15 -40 8 -47 -20 -20 2
-23 89 -13 101 12 119 24 119 83 0 33 -6 46 -30 66 -34 30 -49 13 -16 -18 27
-25 28 -75 2 -89 -32 -17 -38 -12 -46 36 -12 85 -81 122 -124 68z m84 -27 c8
-13 17 -37 21 -54 5 -27 3 -31 -22 -36 -36 -6 -74 30 -74 72 0 45 49 57 75 18z"/>
<path d="M6830 3923 c-39 -13 -52 -71 -25 -110 13 -19 13 -21 -8 -27 -41 -10
-4 -24 97 -36 60 -6 103 -7 109 -1 14 14 -8 22 -84 28 -79 7 -103 27 -97 80
l3 28 98 -2 c76 -1 97 1 97 12 0 9 -19 16 -57 20 -32 3 -71 7 -88 9 -16 2 -37
1 -45 -1z"/>
<path d="M328 3717 c-96 -15 -128 -24 -128 -35 0 -12 10 -13 49 -8 l50 7 -6
-36 c-16 -96 116 -141 197 -65 35 33 39 66 9 104 -11 14 -16 26 -10 26 6 0 11
7 11 15 0 18 -10 18 -172 -8z m144 -34 c45 -40 11 -97 -66 -110 -65 -10 -114
43 -82 92 23 35 117 46 148 18z"/>
<path d="M6784 3666 c-76 -64 12 -182 120 -162 63 12 97 79 68 133 -29 53
-141 70 -188 29z m136 -21 c55 -28 48 -97 -10 -110 -87 -19 -163 52 -113 107
20 22 82 24 123 3z"/>
<path d="M480 3485 c0 -8 6 -15 13 -15 43 0 63 -81 26 -101 -25 -13 -33 -6
-48 42 -15 48 -44 72 -83 72 -60 0 -78 -68 -32 -122 14 -17 21 -31 15 -31 -6
0 -11 -7 -11 -15 0 -18 -2 -18 74 0 123 31 140 47 125 115 -12 51 -79 98 -79
55z m-52 -48 c24 -25 41 -87 24 -87 -6 0 -17 -3 -26 -6 -18 -7 -76 46 -76 70
0 18 27 46 44 46 7 0 22 -10 34 -23z"/>
<path d="M6640 3471 c0 -12 2 -21 4 -21 2 0 12 -3 21 -6 13 -5 16 -2 13 17 -4
31 -38 39 -38 10z"/>
<path d="M6725 3450 c-8 -12 -4 -14 108 -40 105 -24 107 -24 107 -7 0 9 -33
21 -94 35 -108 25 -113 26 -121 12z"/>
<path d="M6704 3365 c-7 -28 -7 -28 -52 -16 -28 9 -33 8 -30 -6 2 -9 18 -21
36 -25 27 -7 32 -13 27 -28 -8 -24 10 -27 23 -4 7 13 18 13 95 -8 96 -25 109
-22 122 35 9 35 -12 36 -25 1 -12 -29 -20 -29 -125 1 -52 16 -54 17 -48 46 7
36 -14 40 -23 4z"/>
<path d="M473 3249 c-65 -21 -91 -34 -87 -43 4 -11 20 -9 82 10 69 21 78 22
99 9 12 -8 27 -24 33 -36 17 -31 -9 -53 -95 -78 -48 -15 -75 -28 -75 -37 0 -8
3 -14 7 -14 16 0 168 53 181 63 24 19 14 73 -18 100 -22 19 -26 26 -15 31 21
8 19 26 -2 26 -10 -1 -59 -14 -110 -31z"/>
<path d="M6650 3178 c-24 -40 -25 -66 -4 -97 12 -16 19 -20 27 -12 8 8 8 14
-1 23 -29 29 0 107 35 94 8 -3 17 -6 19 -6 3 0 2 -29 -2 -64 -6 -56 -4 -66 15
-85 27 -27 65 -27 92 0 16 16 20 31 17 64 -3 37 0 45 17 49 30 8 9 21 -72 45
-99 29 -119 28 -143 -11z m165 -41 c42 -60 -11 -129 -60 -80 -13 12 -15 26
-11 56 4 22 9 43 11 48 8 12 45 -2 60 -24z"/>
<path d="M6591 3012 c-29 -53 -50 -122 -38 -122 6 0 21 23 33 51 l20 51 63
-97 c35 -56 66 -94 71 -89 18 19 61 137 53 145 -5 5 -19 -14 -32 -46 -13 -30
-26 -55 -29 -55 -4 0 -29 36 -56 80 -59 97 -71 108 -85 82z"/>
<path d="M685 2939 c-60 -28 -125 -57 -142 -64 -22 -9 -31 -19 -27 -29 5 -12
17 -9 72 15 63 29 67 29 80 12 31 -42 26 -61 -27 -123 -28 -32 -51 -63 -51
-69 0 -28 22 -14 68 43 l51 64 36 -18 c19 -10 44 -16 54 -13 33 8 61 42 61 73
0 30 -48 160 -59 160 -3 0 -55 -23 -116 -51z m125 -29 c23 -44 26 -90 8 -108
-18 -18 -63 -15 -81 6 -16 18 -51 92 -45 97 8 6 84 44 90 45 4 0 17 -18 28
-40z"/>
<path d="M6427 2861 c-5 -20 17 -36 34 -25 14 9 10 31 -7 38 -21 8 -21 8 -27
-13z"/>
<path d="M6510 2825 c0 -8 34 -32 78 -54 99 -49 122 -57 122 -38 0 7 -10 19
-22 24 -149 71 -178 82 -178 68z"/>
<path d="M6456 2709 c-20 -16 -26 -29 -26 -61 0 -31 -3 -39 -14 -35 -8 3 -17
0 -19 -7 -3 -8 31 -32 93 -65 68 -36 100 -48 103 -39 2 8 -22 28 -61 49 -71
40 -82 52 -82 90 0 58 39 63 126 14 67 -38 84 -42 84 -22 0 10 -153 97 -171
97 -4 0 -18 -9 -33 -21z"/>
<path d="M730 2667 c-30 -15 -51 -35 -63 -60 -17 -34 -17 -38 -2 -71 22 -46
63 -63 114 -47 122 36 136 167 21 196 -17 4 -40 -2 -70 -18z m105 -31 c27 -27
25 -46 -7 -83 -46 -50 -119 -54 -140 -8 -15 33 2 65 50 93 48 28 68 27 97 -2z"/>
<path d="M893 2481 c-73 -47 -133 -91 -133 -98 0 -7 7 -10 15 -7 11 5 15 -1
15 -23 0 -70 66 -101 139 -63 43 21 81 70 81 104 0 10 -16 33 -35 51 l-35 33
50 32 c48 31 58 44 43 53 -5 3 -68 -34 -140 -82z m67 -51 c28 -28 25 -53 -10
-89 -39 -39 -93 -50 -120 -26 -36 33 -23 78 35 114 39 25 70 26 95 1z"/>
<path d="M6332 2495 c-35 -29 -48 -74 -32 -105 16 -29 30 -16 23 23 -3 23 1
39 15 57 18 22 23 23 46 12 l27 -12 -21 -40 c-27 -53 -26 -91 4 -119 19 -18
32 -22 51 -17 32 8 67 63 60 94 -4 18 -2 22 11 20 9 -2 19 2 20 7 3 9 -151
105 -168 105 -4 0 -20 -11 -36 -25z m131 -62 c30 -35 26 -89 -8 -105 -22 -10
-29 -9 -47 10 -21 20 -21 22 -4 66 19 49 34 56 59 29z"/>
<path d="M6217 2373 c-4 -3 -7 -17 -7 -31 0 -13 -12 -38 -26 -55 -20 -24 -24
-37 -20 -61 7 -34 38 -66 66 -66 9 0 22 -12 29 -26 8 -19 17 -25 31 -21 16 4
20 0 20 -17 0 -57 50 -60 101 -7 41 44 56 89 39 120 -18 35 -56 26 -110 -25
-45 -42 -70 -50 -70 -22 0 7 10 22 22 35 42 45 15 123 -44 123 -17 0 -19 5
-13 30 6 28 -3 39 -18 23z m61 -95 c18 -18 14 -53 -8 -73 -44 -40 -107 25 -69
71 14 17 60 19 77 2z m151 -86 c19 -35 -37 -118 -76 -110 -34 6 -28 47 13 89
43 44 49 46 63 21z"/>
<path d="M1003 2270 c-45 -20 -83 -69 -83 -107 0 -12 12 -35 26 -52 20 -24 34
-31 62 -31 98 0 167 111 110 173 -32 35 -65 39 -115 17z m100 -42 c19 -26 19
-27 1 -59 -11 -18 -37 -41 -58 -52 -35 -18 -41 -19 -65 -6 -39 22 -41 71 -4
105 54 51 94 55 126 12z"/>
<path d="M6098 2173 c0 -10 0 -28 1 -41 2 -20 -1 -22 -18 -13 -12 7 -22 7 -26
2 -8 -14 158 -152 169 -140 6 5 -12 29 -48 63 -55 51 -58 55 -54 96 2 28 -1
45 -9 47 -7 3 -14 -4 -15 -14z"/>
<path d="M1252 2148 c-18 -19 -25 -21 -41 -11 -23 14 -35 5 -19 -14 9 -11 -2
-26 -55 -74 -37 -33 -67 -69 -67 -79 0 -22 36 -68 46 -57 4 4 1 18 -6 32 -15
29 -11 35 62 97 47 39 49 40 68 23 26 -23 37 -13 17 15 -14 21 -14 24 11 45
19 17 24 27 17 34 -8 8 -17 4 -33 -11z"/>
<path d="M1344 2069 c-3 -6 0 -17 8 -25 13 -13 16 -13 27 0 7 8 10 20 6 26 -8
13 -32 13 -41 -1z"/>
<path d="M5872 2068 c-12 -6 -32 -27 -43 -45 -74 -119 110 -298 232 -226 40
24 62 74 54 123 -7 44 -69 121 -116 145 -33 17 -94 18 -127 3z m136 -48 c45
-32 82 -94 82 -135 0 -38 -42 -75 -85 -75 -114 0 -209 147 -140 215 35 36 90
34 143 -5z"/>
<path d="M1226 1947 c-51 -47 -77 -78 -72 -86 9 -14 166 123 166 145 0 24 -12
16 -94 -59z"/>
<path d="M1335 1908 c-64 -35 -96 -98 -75 -149 15 -36 63 -63 97 -54 33 8 24
31 -11 27 -32 -4 -66 22 -66 50 0 28 26 74 52 92 51 36 115 8 104 -46 -5 -24
-3 -29 12 -26 13 3 17 13 15 38 -3 62 -73 99 -128 68z"/>
<path d="M5615 1829 c-4 -5 -1 -18 7 -27 184 -218 208 -242 208 -211 0 9 -198
249 -206 249 -1 0 -6 -5 -9 -11z"/>
<path d="M1502 1774 c-29 -20 -28 -61 3 -104 29 -40 32 -66 8 -78 -37 -19 -83
19 -83 67 0 12 -7 21 -15 21 -28 0 -17 -50 19 -86 39 -39 76 -44 106 -14 27
27 25 45 -11 102 -26 39 -29 51 -19 63 26 32 74 6 82 -43 4 -30 22 -33 26 -5
4 24 -42 78 -73 87 -11 3 -31 -1 -43 -10z"/>
<path d="M1757 1541 c-98 -147 -99 -127 11 -201 44 -28 67 -39 74 -32 7 7 -12
25 -61 57 l-71 48 17 28 c10 16 27 41 38 54 l20 25 45 -30 c25 -16 51 -30 58
-30 22 0 13 18 -20 39 -74 47 -73 44 -42 90 14 23 31 41 36 41 5 0 36 -18 68
-40 59 -40 80 -48 80 -30 0 10 -143 110 -158 110 -5 0 -48 -58 -95 -129z"/>
<path d="M5559 1655 c-28 -15 -55 -67 -44 -84 11 -19 24 -12 27 16 2 14 15 35
31 47 l27 20 21 -21 22 -21 -37 -36 c-19 -20 -39 -48 -42 -61 -7 -30 16 -70
45 -80 29 -9 76 19 90 53 9 22 17 28 32 25 31 -8 22 10 -39 83 -62 74 -87 85
-133 59z m117 -82 c20 -27 17 -64 -8 -90 -25 -27 -41 -29 -62 -7 -24 24 -19
48 16 83 37 36 37 36 54 14z"/>
<path d="M5370 1520 c-11 -11 -23 -32 -26 -46 -6 -24 -9 -25 -19 -11 -6 8 -16
13 -22 9 -7 -5 11 -41 49 -100 41 -62 64 -90 71 -83 7 7 -4 32 -32 77 -43 69
-46 90 -13 127 28 32 50 20 99 -55 26 -40 49 -75 50 -77 2 -3 8 0 14 6 7 7 -3
31 -35 81 -60 94 -95 113 -136 72z"/>
<path d="M2142 1419 l-29 -50 -16 24 c-39 60 -116 49 -155 -22 -32 -56 -29
-114 5 -141 17 -13 38 -20 54 -18 14 2 26 -1 25 -6 -1 -6 4 -13 9 -15 9 -3
163 251 164 272 1 4 -5 7 -13 7 -8 0 -28 -23 -44 -51z m-57 -53 c7 -22 5 -36
-15 -73 -29 -54 -62 -71 -96 -48 -18 12 -24 25 -24 54 0 91 107 144 135 67z"/>
<path d="M5151 1384 c-26 -21 -31 -33 -31 -68 0 -51 36 -108 79 -126 56 -23
121 25 121 91 0 32 -38 94 -70 112 -39 23 -63 21 -99 -9z m96 -26 c45 -50 55
-98 26 -130 -30 -33 -73 -22 -103 28 -24 39 -29 86 -10 109 18 22 63 19 87 -7z"/>
<path d="M4966 1391 c-7 -10 3 -41 13 -41 17 1 31 18 25 33 -7 18 -29 23 -38
8z"/>
<path d="M2170 1255 c-24 -53 -38 -95 -34 -107 9 -30 50 -51 88 -45 30 5 33 3
29 -14 -3 -11 0 -19 7 -19 17 0 104 190 91 203 -6 6 -22 -14 -45 -61 -38 -76
-63 -97 -102 -88 -45 12 -46 36 -7 120 28 57 34 79 25 88 -9 9 -21 -11 -52
-77z"/>
<path d="M4857 1324 c-3 -4 1 -20 9 -37 15 -27 15 -31 0 -39 -23 -13 -20 -31
4 -23 16 5 25 -6 56 -74 39 -85 56 -99 98 -80 36 17 33 30 -6 27 -31 -3 -35 1
-59 52 -41 86 -43 97 -19 105 11 3 20 13 20 21 0 11 -4 12 -19 4 -30 -16 -38
-12 -50 20 -10 29 -21 37 -34 24z"/>
<path d="M5008 1314 c-6 -5 66 -168 85 -192 6 -7 14 -9 19 -4 9 9 -78 202 -91
202 -4 0 -10 -3 -13 -6z"/>
<path d="M2410 1192 c-31 -32 -50 -86 -43 -125 12 -59 90 -94 133 -59 30 24
20 41 -14 22 -34 -18 -74 -5 -87 27 -18 47 29 143 71 143 25 0 60 -29 60 -51
0 -10 7 -19 15 -19 23 0 18 38 -10 65 -35 36 -88 34 -125 -3z"/>
<path d="M4725 1196 c-55 -24 -69 -89 -35 -156 23 -44 45 -60 88 -60 92 0 120
121 44 192 -36 34 -60 40 -97 24z m73 -36 c31 -29 48 -93 34 -125 -13 -28 -52
-41 -80 -26 -24 13 -52 70 -52 107 0 57 56 83 98 44z"/>
<path d="M2865 1134 c-5 -29 -10 -35 -26 -31 -12 3 -19 0 -19 -9 0 -8 7 -14
16 -14 12 0 15 -6 11 -22 -22 -87 -33 -146 -29 -161 3 -16 38 -37 63 -37 16 0
10 20 -8 27 -34 12 -34 26 -3 144 9 32 13 35 40 31 37 -5 41 15 4 24 -23 6
-25 10 -19 45 5 31 4 39 -8 39 -9 0 -17 -14 -22 -36z"/>
<path d="M2994 1145 c-7 -18 3 -35 22 -35 8 0 14 2 14 4 0 2 3 11 6 19 3 9 -3
16 -16 20 -13 3 -23 0 -26 -8z"/>
<path d="M2625 1137 c-30 -22 -9 -39 24 -19 41 23 81 5 81 -36 l0 -29 -69 5
c-63 4 -69 3 -85 -19 -23 -34 -20 -65 10 -88 29 -23 64 -27 94 -11 15 8 17 6
13 -10 -4 -13 0 -20 9 -20 15 0 58 129 58 174 0 51 -89 86 -135 53z m91 -110
c12 -12 -22 -62 -48 -71 -56 -20 -104 34 -65 73 12 12 100 11 113 -2z"/>
<path d="M4523 1130 c-12 -5 -27 -18 -33 -30 -9 -16 -15 -18 -30 -10 -32 17
-67 11 -88 -15 -23 -28 -32 -32 -32 -10 0 8 -6 12 -14 9 -11 -4 -9 -23 13
-107 15 -55 33 -103 39 -105 16 -5 15 11 -5 89 -16 63 -16 68 0 93 20 30 61
35 76 8 5 -9 17 -47 26 -82 9 -36 21 -69 26 -74 19 -20 21 6 4 74 -20 82 -14
116 21 132 23 11 29 9 44 -10 10 -12 25 -53 35 -92 12 -47 22 -70 32 -70 17 0
13 24 -19 127 -23 76 -45 93 -95 73z"/>
<path d="M3704 1103 l-31 -4 4 -137 c5 -160 8 -182 28 -182 13 0 14 11 9 66
-8 77 -3 84 69 84 122 0 149 143 32 170 -40 10 -55 10 -111 3z m129 -35 c26
-21 31 -61 10 -87 -13 -16 -33 -23 -75 -28 l-58 -6 0 67 0 66 53 0 c29 0 61
-6 70 -12z"/>
<path d="M2985 1058 c-2 -7 -11 -49 -20 -93 -9 -44 -19 -88 -21 -97 -4 -12 0
-18 10 -18 9 0 18 10 21 23 2 12 11 53 20 90 8 38 15 77 15 88 0 21 -18 26
-25 7z"/>
<path d="M4137 1039 c-28 -16 -48 -72 -40 -111 19 -105 110 -140 167 -65 35
47 16 150 -33 177 -25 13 -71 12 -94 -1z m83 -27 c31 -25 41 -120 15 -145 -17
-18 -52 -22 -71 -9 -20 13 -35 52 -37 94 -1 31 4 44 22 59 29 24 43 24 71 1z"/>
<path d="M3107 1029 c-27 -16 -47 -64 -47 -114 0 -38 5 -52 29 -76 37 -37 72
-37 112 -1 56 50 56 161 1 191 -26 14 -71 14 -95 0z m84 -28 c19 -15 23 -27
21 -65 -2 -60 -26 -96 -62 -96 -42 0 -60 24 -60 79 0 34 6 56 21 75 24 31 48
33 80 7z"/>
<path d="M4001 1004 c-20 -25 -21 -26 -21 -5 0 13 -6 21 -16 21 -14 0 -16 -9
-10 -62 15 -141 19 -158 32 -158 11 0 13 14 8 70 -7 77 4 115 38 126 21 6 25
34 4 34 -8 0 -24 -12 -35 -26z"/>
<path d="M3306 943 c-9 -115 -8 -143 8 -143 10 0 15 21 18 77 4 64 9 80 28 95
26 21 65 24 77 6 4 -7 8 -51 8 -98 0 -47 5 -87 10 -90 15 -7 28 159 15 188
-15 34 -55 46 -93 27 -28 -14 -32 -14 -39 0 -17 30 -25 14 -32 -62z"/>
</g>
</svg>
